<?xml version="1.0" encoding="UTF-8"?><svg id="outline" xmlns="http://www.w3.org/2000/svg" viewBox="0 0 54 54"><defs><style>.cls-1{fill:none;}.cls-2{fill:#fd5d00;}</style></defs><rect class="cls-1" y="0" width="54" height="54"/><path class="cls-2" d="m42.88,1.73H11.12C5.95,1.73,1.73,5.95,1.73,11.12v31.76c0,5.17,4.21,9.39,9.39,9.39h31.76c5.17,0,9.39-4.21,9.39-9.39V11.12c0-5.18-4.21-9.39-9.39-9.39Zm6.24,41.15c0,3.44-2.8,6.23-6.24,6.23H11.12c-3.44,0-6.24-2.8-6.24-6.23V11.12c0-3.44,2.8-6.24,6.24-6.24h31.76c3.44,0,6.24,2.8,6.24,6.24v31.76Z"/><path class="cls-2" d="m40.92,10.27h-9.74c-.91,0-1.63.68-1.63,1.61s.7,1.6,1.63,1.6h1.47l6.13-.35-4.86,4.62-5.44,5.41c-.32.3-.46.68-.46,1.11,0,1,.65,1.74,1.63,1.74.47,0,.9-.16,1.21-.47l5.41-5.42,4.62-4.86-.35,6.14v1.46c0,.93.65,1.65,1.6,1.65s1.61-.7,1.61-1.65v-9.74c0-1.79-1.04-2.83-2.83-2.83Z"/><path class="cls-2" d="m24.35,27.98c-.47,0-.9.18-1.21.49l-5.41,5.41-4.62,4.88.35-6.14v-1.47c0-.93-.65-1.65-1.6-1.65s-1.61.72-1.61,1.65v9.74c0,1.79,1.04,2.84,2.83,2.84h9.74c.91,0,1.63-.68,1.63-1.63s-.7-1.6-1.63-1.6h-1.47l-6.13.37,4.86-4.63,5.44-5.39c.32-.3.46-.7.46-1.12,0-.98-.65-1.74-1.63-1.74Z"/></svg>